<svg id="Layer_1" data-name="Layer 1" xmlns="http://www.w3.org/2000/svg" viewBox="0 0 376.99 55.44"><defs><style>.cls-1{fill:#ff7f30;}.cls-2{fill:#fefefe;}</style></defs><title>CN_2018_Logo_White</title><path class="cls-1" d="M200.06,375a28.41,28.41,0,0,1-8-1,14.8,14.8,0,0,1-5.39-2.76,10.36,10.36,0,0,1-3-4.21,15,15,0,0,1-.95-5.44V333a15,15,0,0,1,.95-5.44,10.42,10.42,0,0,1,3-4.21,14.8,14.8,0,0,1,5.39-2.76,28.78,28.78,0,0,1,8-1h44.65v8.19H200.06q-6.93,0-6.93,5.12v28.82q0,5.13,6.93,5.12h44.65V375Z" transform="translate(-182.65 -319.59)"/><path class="cls-1" d="M321.81,375l-59.14-43.15V375h-9.14V319.59h9.06l55.2,41.19V319.59h9.14V375Z" transform="translate(-182.65 -319.59)"/><path class="cls-2" d="M337.17,375V319.59h10.55v47.25h45V375Z" transform="translate(-182.65 -319.59)"/><path class="cls-2" d="M400.4,375V319.59h10.48V375Z" transform="translate(-182.65 -319.59)"/><path class="cls-2" d="M453.25,375l-36.86-55.44h11.89l29,44.65,28.67-44.65h11.58L460.89,375Z" transform="translate(-182.65 -319.59)"/><path class="cls-2" d="M502.63,375V319.59h57v8.19H513.1v13.86h44.18v8.19H513.1v17h46.54V375Z" transform="translate(-182.65 -319.59)"/></svg>